<?xml version="1.0" encoding="UTF-8" standalone="no"?>
<svg
   width="4rem"
   height="4rem"
   viewBox="0 0 20 20"
   version="1.1"
   id="svg1"
   sodipodi:docname="iconNew.svg"
   inkscape:version="1.3.2 (091e20e, 2023-11-25)"
   xmlns:inkscape="http://www.inkscape.org/namespaces/inkscape"
   xmlns:sodipodi="http://sodipodi.sourceforge.net/DTD/sodipodi-0.dtd"
   xmlns="http://www.w3.org/2000/svg"
   xmlns:svg="http://www.w3.org/2000/svg">
  <defs
     id="defs1" />
  <sodipodi:namedview
     id="namedview1"
     pagecolor="#ffffff"
     bordercolor="#000000"
     borderopacity="0.25"
     inkscape:showpageshadow="2"
     inkscape:pageopacity="0.0"
     inkscape:pagecheckerboard="0"
     inkscape:deskcolor="#d1d1d1"
     inkscape:zoom="31.24272"
     inkscape:cx="10.290397"
     inkscape:cy="9.5702295"
     inkscape:window-width="1472"
     inkscape:window-height="817"
     inkscape:window-x="0"
     inkscape:window-y="37"
     inkscape:window-maximized="1"
     inkscape:current-layer="svg1" />
  <path
     fill="black"
     d="M10.428 2.212a.645.645 0 0 0-.857 0a5.72 5.72 0 0 0-1.926 4.35a.5.5 0 0 0 .246.425A7.4 7.4 0 0 1 9.628 8.41a.5.5 0 0 0 .743 0a7.4 7.4 0 0 1 1.737-1.421a.5.5 0 0 0 .245-.425a5.72 5.72 0 0 0-1.925-4.351m-7.412 9.996a.663.663 0 0 1 .606-.72A6.36 6.36 0 0 1 10 15.326a6.36 6.36 0 0 1 6.377-3.838c.366.03.64.352.606.72A6.37 6.37 0 0 1 10.64 18h-.465a.7.7 0 0 1-.176-.024a.7.7 0 0 1-.177.024h-.465a6.37 6.37 0 0 1-6.342-5.792M10 10.826a6.36 6.36 0 0 0-6.378-3.838a.663.663 0 0 0-.606.72a6.35 6.35 0 0 0 .765 2.5a.5.5 0 0 0 .434.258a7.36 7.36 0 0 1 5.368 2.394a.5.5 0 0 0 .417.16a.5.5 0 0 0 .416-.16a7.36 7.36 0 0 1 5.368-2.394a.5.5 0 0 0 .434-.259a6.35 6.35 0 0 0 .765-2.499a.663.663 0 0 0-.606-.72A6.36 6.36 0 0 0 10 10.826"
     id="path1" />
  <path
     style="fill:#ff6600;stroke:#ff6600;stroke-width:0.132;stroke-opacity:1;stroke-dasharray:none"
     d="m 8.527804,17.927473 c -2.7934792,-0.383172 -4.9939526,-2.531764 -5.4417306,-5.31343 -0.081553,-0.506621 -0.053935,-0.711046 0.1214704,-0.899091 0.1523341,-0.163311 0.298205,-0.20679 0.7518486,-0.224101 1.6843713,-0.06427 3.3477662,0.581588 4.5963204,1.784652 0.51246,0.493789 0.9784657,1.130309 1.2833835,1.752983 0.080516,0.164422 0.1526212,0.29895 0.1602332,0.29895 0.00761,0 0.092377,-0.156263 0.1883645,-0.34725 0.807385,-1.60644 2.285392,-2.814241 4.000326,-3.268993 0.560725,-0.148689 0.898656,-0.198439 1.47859,-0.217678 0.779363,-0.02585 0.994672,0.03169 1.201007,0.320973 0.156029,0.218755 0.06942,0.992077 -0.202536,1.808332 -0.454917,1.36542 -1.366061,2.546954 -2.565132,3.32636 -0.798628,0.519115 -1.708628,0.854669 -2.653823,0.978573 -0.478747,0.06276 -2.4601348,0.06257 -2.918322,-2.8e-4 z"
     id="path5" />
  <path
     style="fill:#d8a820;stroke:#d8a820;stroke-width:0.103;stroke-dasharray:none;stroke-opacity:1"
     d="M 8.6214391,17.990256 C 8.1136948,17.941159 7.2890386,17.71372 6.7671263,17.478838 6.027603,17.146022 5.4314153,16.731768 4.8358604,16.136922 3.8843589,15.186553 3.2819441,14.022753 3.0397261,12.666986 c -0.054323,-0.304061 -0.054694,-0.665445 -8.105e-4,-0.788414 0.053418,-0.121906 0.1976961,-0.279095 0.3076643,-0.335197 0.1478556,-0.07543 0.3811898,-0.103335 0.8553902,-0.102298 0.9766451,0.0021 1.8623371,0.21178 2.7483817,0.650547 1.2465264,0.617277 2.1888956,1.533777 2.8712079,2.792389 0.096515,0.178034 0.1789343,0.323699 0.1831553,0.323699 0.0042,0 0.07919,-0.137008 0.166591,-0.304463 0.329966,-0.632164 0.732254,-1.170491 1.244987,-1.665994 0.824857,-0.797139 1.762373,-1.319286 2.887507,-1.608191 0.568089,-0.145871 0.782239,-0.170212 1.502858,-0.17082 l 0.647806,-5.46e-4 0.159763,0.0786 c 0.160922,0.07917 0.29145,0.208398 0.340318,0.336931 0.113386,0.298228 -0.019,1.164055 -0.293228,1.917697 -0.226076,0.621321 -0.636037,1.344609 -1.066127,1.880957 -0.368225,0.459197 -0.924048,0.960089 -1.45077,1.307393 -0.83193,0.548549 -1.899501,0.930106 -2.833303,1.012643 -0.329768,0.02915 -2.3841853,0.02788 -2.6896779,-0.0017 z"
     id="path6" />
  <path
     style="fill:#e8d04c;stroke:#e8d04c;stroke-width:0.103;stroke-dasharray:none;stroke-opacity:1"
     d="M 9.7598086,12.962261 C 9.7060624,12.93714 9.5631466,12.815258 9.4422178,12.691411 8.2960808,11.517612 6.8392622,10.775028 5.1994127,10.528726 5.0637891,10.508356 4.760277,10.480673 4.5249414,10.467209 4.0533039,10.440227 3.981936,10.420257 3.8597359,10.281079 3.6553023,10.048242 3.2866921,9.1198818 3.1520778,8.4988125 3.0878564,8.2025143 3.0303753,7.8069029 3.0297749,7.6570679 3.0287083,7.3908978 3.2132781,7.1226307 3.453874,7.0406515 3.6231965,6.9829575 4.1862,6.9622176 4.6172811,6.9977939 6.1654724,7.1255631 7.5573303,7.7648314 8.636103,8.8436042 c 0.4775193,0.4775193 0.8884639,1.0469159 1.1896457,1.6483488 0.091045,0.18181 0.171447,0.327953 0.1786703,0.324763 0.0072,-0.0032 0.08887,-0.1571 0.181446,-0.342021 0.930737,-1.8592361 2.725017,-3.139699 4.81899,-3.4390059 0.352397,-0.050371 0.988244,-0.070847 1.269047,-0.040868 0.259898,0.027747 0.380166,0.076057 0.507808,0.2039791 0.196225,0.1966555 0.222631,0.404263 0.124799,0.9811929 -0.100154,0.5906227 -0.275515,1.1414037 -0.541306,1.7001576 -0.257241,0.5407783 -0.274689,0.5523183 -0.888153,0.5874153 -0.236872,0.01355 -0.548284,0.04195 -0.692028,0.06311 -1.586502,0.233538 -3.024941,0.960248 -4.17409,2.108782 -0.165007,0.164918 -0.335725,0.313072 -0.383989,0.333239 -0.120914,0.05052 -0.3475442,0.04546 -0.4671344,-0.01044 z"
     id="path7" />
  <path
     style="fill:#fcf478;stroke:#fcf478;stroke-width:0.103;stroke-dasharray:none;stroke-opacity:1"
     d="M 9.8208837,8.5238982 C 9.7738558,8.5035898 9.5704756,8.324386 9.3689276,8.1256682 8.9353044,7.6981339 8.6484018,7.4646661 8.149772,7.1335772 7.6419966,6.7964158 7.62671,6.7648458 7.6706822,6.1441598 7.7708652,4.7300337 8.3162383,3.5083957 9.2940383,2.507836 9.6419897,2.1517856 9.738463,2.0877986 9.9533337,2.0705508 c 0.1301663,-0.010448 0.1762903,-0.00266 0.2885153,0.048718 0.25371,0.1161525 0.78305,0.6823684 1.144334,1.2240532 0.594007,0.8906144 0.950997,2.0436772 0.950997,3.0716838 0,0.3378286 -0.04313,0.4298464 -0.269853,0.5757148 -0.650875,0.4187611 -1.027626,0.7183149 -1.493929,1.1878178 -0.174269,0.1754655 -0.347882,0.3280693 -0.396203,0.3482596 -0.109052,0.045565 -0.2466777,0.044445 -0.3563113,-0.0029 z"
     id="path8" />
</svg>
